<svg xmlns="http://www.w3.org/2000/svg" version="1" xmlns:xlink="http://www.w3.org/1999/xlink" width="500" zoomAndPan="magnify" viewBox="0 0 375 374.999991" height="500" preserveAspectRatio="xMidYMid meet"><metadata><rdf:RDF xmlns:rdf="http://www.w3.org/1999/02/22-rdf-syntax-ns#" xmlns:dc="http://purl.org/dc/elements/1.1/"><rdf:Description><dc:creator>RealFaviconGenerator</dc:creator><dc:source>https://realfavicongenerator.net</dc:source></rdf:Description></rdf:RDF></metadata><defs><clipPath id="779868a181"><path d="M 196.632812 195.011719 L 309.132812 195.011719 L 309.132812 307.511719 L 196.632812 307.511719 Z M 196.632812 195.011719 " clip-rule="nonzero"></path></clipPath><clipPath id="d112e56948"><path d="M 213.882812 195.011719 L 291.882812 195.011719 C 296.457031 195.011719 300.84375 196.828125 304.078125 200.066406 C 307.316406 203.300781 309.132812 207.6875 309.132812 212.261719 L 309.132812 290.261719 C 309.132812 294.835938 307.316406 299.226562 304.078125 302.460938 C 300.84375 305.695312 296.457031 307.511719 291.882812 307.511719 L 213.882812 307.511719 C 209.308594 307.511719 204.917969 305.695312 201.683594 302.460938 C 198.449219 299.226562 196.632812 294.835938 196.632812 290.261719 L 196.632812 212.261719 C 196.632812 207.6875 198.449219 203.300781 201.683594 200.066406 C 204.917969 196.828125 209.308594 195.011719 213.882812 195.011719 Z M 213.882812 195.011719 " clip-rule="nonzero"></path></clipPath><clipPath id="cf9f31e66d"><path d="M 0.632812 0.0117188 L 113.132812 0.0117188 L 113.132812 112.511719 L 0.632812 112.511719 Z M 0.632812 0.0117188 " clip-rule="nonzero"></path></clipPath><clipPath id="4ed426dab1"><path d="M 17.882812 0.0117188 L 95.882812 0.0117188 C 100.457031 0.0117188 104.84375 1.828125 108.078125 5.066406 C 111.316406 8.300781 113.132812 12.6875 113.132812 17.261719 L 113.132812 95.261719 C 113.132812 99.835938 111.316406 104.226562 108.078125 107.460938 C 104.84375 110.695312 100.457031 112.511719 95.882812 112.511719 L 17.882812 112.511719 C 13.308594 112.511719 8.917969 110.695312 5.683594 107.460938 C 2.449219 104.226562 0.632812 99.835938 0.632812 95.261719 L 0.632812 17.261719 C 0.632812 12.6875 2.449219 8.300781 5.683594 5.066406 C 8.917969 1.828125 13.308594 0.0117188 17.882812 0.0117188 Z M 17.882812 0.0117188 " clip-rule="nonzero"></path></clipPath><clipPath id="c83972e81a"><rect x="0" width="114" y="0" height="113"></rect></clipPath><clipPath id="7886701b4a"><path d="M 65.867188 67.488281 L 178.367188 67.488281 L 178.367188 179.988281 L 65.867188 179.988281 Z M 65.867188 67.488281 " clip-rule="nonzero"></path></clipPath><clipPath id="523a2b00d3"><path d="M 83.117188 67.488281 L 161.117188 67.488281 C 165.691406 67.488281 170.082031 69.304688 173.316406 72.539062 C 176.550781 75.773438 178.367188 80.164062 178.367188 84.738281 L 178.367188 162.738281 C 178.367188 167.3125 176.550781 171.699219 173.316406 174.933594 C 170.082031 178.171875 165.691406 179.988281 161.117188 179.988281 L 83.117188 179.988281 C 78.542969 179.988281 74.15625 178.171875 70.921875 174.933594 C 67.683594 171.699219 65.867188 167.3125 65.867188 162.738281 L 65.867188 84.738281 C 65.867188 80.164062 67.683594 75.773438 70.921875 72.539062 C 74.15625 69.304688 78.542969 67.488281 83.117188 67.488281 Z M 83.117188 67.488281 " clip-rule="nonzero"></path></clipPath><clipPath id="0c617c6d35"><path d="M 0.867188 0.488281 L 113.367188 0.488281 L 113.367188 112.988281 L 0.867188 112.988281 Z M 0.867188 0.488281 " clip-rule="nonzero"></path></clipPath><clipPath id="1221310d6e"><path d="M 18.117188 0.488281 L 96.117188 0.488281 C 100.691406 0.488281 105.082031 2.304688 108.316406 5.539062 C 111.550781 8.773438 113.367188 13.164062 113.367188 17.738281 L 113.367188 95.738281 C 113.367188 100.3125 111.550781 104.699219 108.316406 107.933594 C 105.082031 111.171875 100.691406 112.988281 96.117188 112.988281 L 18.117188 112.988281 C 13.542969 112.988281 9.15625 111.171875 5.921875 107.933594 C 2.683594 104.699219 0.867188 100.3125 0.867188 95.738281 L 0.867188 17.738281 C 0.867188 13.164062 2.683594 8.773438 5.921875 5.539062 C 9.15625 2.304688 13.542969 0.488281 18.117188 0.488281 Z M 18.117188 0.488281 " clip-rule="nonzero"></path></clipPath><clipPath id="2ca44a83c6"><rect x="0" width="114" y="0" height="113"></rect></clipPath><clipPath id="512f68efe7"><path d="M 65.867188 195.011719 L 178.367188 195.011719 L 178.367188 307.511719 L 65.867188 307.511719 Z M 65.867188 195.011719 " clip-rule="nonzero"></path></clipPath><clipPath id="5d5f4a8aae"><path d="M 122.117188 195.011719 L 178.367188 307.511719 L 65.867188 307.511719 Z M 122.117188 195.011719 " clip-rule="nonzero"></path></clipPath><clipPath id="295fe4f4e8"><path d="M 0.867188 0.0117188 L 113.367188 0.0117188 L 113.367188 112.511719 L 0.867188 112.511719 Z M 0.867188 0.0117188 " clip-rule="nonzero"></path></clipPath><clipPath id="d8cc32b91c"><path d="M 57.117188 0.0117188 L 113.367188 112.511719 L 0.867188 112.511719 Z M 57.117188 0.0117188 " clip-rule="nonzero"></path></clipPath><clipPath id="ca06452134"><rect x="0" width="114" y="0" height="113"></rect></clipPath><clipPath id="45fc39083a"><path d="M 195.992188 67.488281 L 308.492188 67.488281 L 308.492188 179.988281 L 195.992188 179.988281 Z M 195.992188 67.488281 " clip-rule="nonzero"></path></clipPath><clipPath id="895dbe5111"><path d="M 252.242188 67.488281 C 221.175781 67.488281 195.992188 92.671875 195.992188 123.738281 C 195.992188 154.804688 221.175781 179.988281 252.242188 179.988281 C 283.308594 179.988281 308.492188 154.804688 308.492188 123.738281 C 308.492188 92.671875 283.308594 67.488281 252.242188 67.488281 Z M 252.242188 67.488281 " clip-rule="nonzero"></path></clipPath><clipPath id="fc71508bf8"><path d="M 0.992188 0.488281 L 113.492188 0.488281 L 113.492188 112.988281 L 0.992188 112.988281 Z M 0.992188 0.488281 " clip-rule="nonzero"></path></clipPath><clipPath id="178d1fe9dd"><path d="M 57.242188 0.488281 C 26.175781 0.488281 0.992188 25.671875 0.992188 56.738281 C 0.992188 87.804688 26.175781 112.988281 57.242188 112.988281 C 88.308594 112.988281 113.492188 87.804688 113.492188 56.738281 C 113.492188 25.671875 88.308594 0.488281 57.242188 0.488281 Z M 57.242188 0.488281 " clip-rule="nonzero"></path></clipPath><clipPath id="29839c1c69"><rect x="0" width="114" y="0" height="113"></rect></clipPath></defs><g clip-path="url(#779868a181)"><g clip-path="url(#d112e56948)"><g transform="matrix(1, 0, 0, 1, 196, 195)"><g clip-path="url(#c83972e81a)"><g clip-path="url(#cf9f31e66d)"><g clip-path="url(#4ed426dab1)"><path fill="#356b55" d="M 0.632812 0.0117188 L 113.132812 0.0117188 L 113.132812 112.511719 L 0.632812 112.511719 Z M 0.632812 0.0117188 " fill-opacity="1" fill-rule="nonzero"></path></g></g></g></g></g></g><g clip-path="url(#7886701b4a)"><g clip-path="url(#523a2b00d3)"><g transform="matrix(1, 0, 0, 1, 65, 67)"><g clip-path="url(#2ca44a83c6)"><g clip-path="url(#0c617c6d35)"><g clip-path="url(#1221310d6e)"><path fill="#356b55" d="M 0.867188 0.488281 L 113.367188 0.488281 L 113.367188 112.988281 L 0.867188 112.988281 Z M 0.867188 0.488281 " fill-opacity="1" fill-rule="nonzero"></path></g></g></g></g></g></g><g clip-path="url(#512f68efe7)"><g clip-path="url(#5d5f4a8aae)"><g transform="matrix(1, 0, 0, 1, 65, 195)"><g clip-path="url(#ca06452134)"><g clip-path="url(#295fe4f4e8)"><g clip-path="url(#d8cc32b91c)"><path fill="#292b29" d="M 0.867188 0.0117188 L 113.367188 0.0117188 L 113.367188 112.511719 L 0.867188 112.511719 Z M 0.867188 0.0117188 " fill-opacity="1" fill-rule="nonzero"></path></g></g></g></g></g></g><g clip-path="url(#45fc39083a)"><g clip-path="url(#895dbe5111)"><g transform="matrix(1, 0, 0, 1, 195, 67)"><g clip-path="url(#29839c1c69)"><g clip-path="url(#fc71508bf8)"><g clip-path="url(#178d1fe9dd)"><path fill="#292b29" d="M 0.992188 0.488281 L 113.492188 0.488281 L 113.492188 112.988281 L 0.992188 112.988281 Z M 0.992188 0.488281 " fill-opacity="1" fill-rule="nonzero"></path></g></g></g></g></g></g><style>@media (prefers-color-scheme: light) { :root { filter: none; } }
@media (prefers-color-scheme: dark) { :root { filter: contrast(0.3846153846153846) brightness(4.5); } }
</style></svg>